# xmcd
#
# Track frame offsets:
#	150
#	20123
#	35457
#	51933
#	69587
#	86070
#	104510
#	123978
#	137472
#	152949
#	171084
#	186416
#	202565
#	217869
#	242918
#	262804
#	275789
#	292808
#
# Disc length: 4090 seconds
#
# Revision: 1
# Processed by: cddbd v1.5.1PL0 Copyright (c) Steve Scherf et al.
# Submitted via: audiograbber 1.83.01
#
DISCID=060ff812
DTITLE=Various Artist - Hott Country 102
DYEAR=2004
DGENRE=Country
TTITLE0=Kid Rock - Single Father
TTITLE1=Rascal Flatts - Feels Like Today
TTITLE2=Montgomery Gentry - You Do Your Thing
TTITLE3=George Strait - I Hate Everything
TTITLE4=Charlie Major - When You're Good You're Good
TTITLE5=The Wilkinsons - Little Girl
TTITLE6=The Notorious Cherrybombs - It's Hard to Kiss The Lips At Night That Ch
TTITLE6=ew Your Ass Out All Day Long
TTITLE7=The Jenkins - Getaway Car
TTITLE8=Lonestar - Mr. Mom
TTITLE9=Randy Travis - Raise Him Up
TTITLE10=Diamond Rio - Can't You Tell
TTITLE11=Malibu Storm - Photograph
TTITLE12=Brooks and Dunn - That's What It's All About
TTITLE13=Lyle Lovett - In My Own Mind
TTITLE14=John Michael Montgomery - Goes Good With Beer
TTITLE15=Andy Griggs - Tonight I Wanna Be Your Man
TTITLE16=Kenny Chesney - Live Those Songs
TTITLE17=The Wilkinsons - LA ( Hot Mix )
EXTD=
EXTT0=
EXTT1=
EXTT2=
EXTT3=
EXTT4=
EXTT5=
EXTT6=
EXTT7=
EXTT8=
EXTT9=
EXTT10=
EXTT11=
EXTT12=
EXTT13=
EXTT14=
EXTT15=
EXTT16=
EXTT17=
PLAYORDER=
